<svg width="50" height="50" viewBox="0 0 50 50" fill="none" xmlns="http://www.w3.org/2000/svg">
<circle cx="25" cy="25" r="24.5" fill="#02CA66" fill-opacity="0.8" stroke="#DEE2E5"/>
<g clip-path="url(#clip0_6082_19105)">
<path d="M37.9964 30.226H37.6645C37.5964 30.0302 37.5198 29.843 37.4262 29.6642L37.7667 29.3238C37.8603 29.2302 37.9198 29.1025 37.9198 28.9664C37.9198 28.8302 37.8688 28.7025 37.7667 28.6089L36.3709 27.2047C36.1752 27.0004 35.8518 27.0089 35.6475 27.2047L35.2645 27.5791C35.0943 27.494 34.9156 27.426 34.7369 27.3664V26.9664C34.7369 26.6855 34.5071 26.4557 34.2262 26.4557H32.2518C32.1581 26.4557 32.073 26.4898 31.9964 26.5323C31.3752 26.1664 30.6773 25.9366 29.9113 25.9111L27.5794 24.7451C29.222 23.3834 30.3964 20.9238 30.3964 18.7621C30.3964 15.5791 27.8092 12.9834 24.6177 12.9834C21.4262 12.9834 18.839 15.5706 18.839 18.7621C18.839 20.9238 20.0135 23.3834 21.656 24.7451L19.3241 25.9111C16.9241 25.9962 14.9922 27.9791 14.9922 30.3962V34.243C14.9922 34.6004 15.2815 34.8813 15.6305 34.8813H28.7539L30.0986 36.2345C30.2943 36.4302 30.6177 36.4302 30.822 36.2345L31.205 35.86C31.3752 35.9451 31.5539 36.0132 31.7326 36.0728V36.4728C31.7326 36.7536 31.9624 36.9834 32.2433 36.9834H34.2177C34.4986 36.9834 34.7284 36.7536 34.7284 36.4728V36.0728C34.9071 36.0132 35.0858 35.9451 35.256 35.86L35.639 36.2345C35.8347 36.4302 36.1581 36.4302 36.3624 36.2345L37.7581 34.8302C37.8518 34.7366 37.9113 34.6004 37.9113 34.4642C37.9113 34.3281 37.8603 34.2004 37.7581 34.1068L37.4177 33.7664C37.5113 33.5877 37.5879 33.4004 37.656 33.2047H37.9879C38.2688 33.2047 38.4986 32.9749 38.4986 32.694V30.7111C38.4986 30.4302 38.2688 30.2004 37.9879 30.2004L37.9964 30.226ZM36.7879 32.5919C36.6943 32.9494 36.5496 33.2898 36.3539 33.6047C36.2262 33.8089 36.2518 34.0728 36.422 34.243L36.6773 34.4983L35.9964 35.1791L35.7071 34.8983C35.5454 34.7366 35.2901 34.7025 35.0943 34.8217C34.7879 35.0004 34.4475 35.1366 34.0986 35.2217C33.8688 35.2728 33.7071 35.477 33.7071 35.7153V35.9877H32.7539V35.7153C32.7539 35.477 32.5922 35.2728 32.3624 35.2217C32.0135 35.1366 31.6815 35.0004 31.3667 34.8217C31.1709 34.7025 30.9156 34.7366 30.7539 34.8983L30.473 35.1791L29.7922 34.4983L30.0475 34.243C30.2177 34.0728 30.2433 33.8089 30.1156 33.6047C29.9198 33.2898 29.7667 32.9494 29.6816 32.5919C29.622 32.3621 29.4177 32.2089 29.1879 32.2089H28.9837V31.2472H29.1879C29.4262 31.2472 29.622 31.0855 29.6816 30.8642C29.7752 30.5068 29.9198 30.1664 30.1156 29.8515C30.2433 29.6472 30.2092 29.3834 30.0475 29.2132L29.7922 28.9579L30.473 28.277L30.7539 28.5579C30.9156 28.7196 31.1709 28.7536 31.3667 28.6345C31.673 28.4557 32.0135 28.3196 32.3624 28.2345C32.5922 28.1834 32.7539 27.9791 32.7539 27.7408V27.4685H33.7071V27.7408C33.7071 27.9791 33.8688 28.1834 34.0986 28.2345C34.4475 28.3196 34.7794 28.4472 35.0943 28.6345C35.2986 28.7536 35.5454 28.7196 35.7071 28.5579L35.9964 28.277L36.6773 28.9579L36.422 29.2132C36.2518 29.3834 36.2262 29.6472 36.3454 29.843C36.5411 30.1579 36.6943 30.4983 36.7794 30.8557C36.839 31.0855 37.0433 31.2387 37.273 31.2387H37.4773V32.2004H37.273C37.0347 32.2004 36.839 32.3621 36.7794 32.5834L36.7879 32.5919ZM31.2135 27.5791L31.1964 27.5621C31.1964 27.5621 31.2135 27.5706 31.2305 27.5791C31.2305 27.5791 31.2305 27.5791 31.222 27.5791H31.2135ZM30.0986 27.2217L30.073 27.2472L30.0901 27.2217H30.0986ZM28.822 26.8132L26.9752 29.5877L25.5624 28.8813L27.4092 26.1068L28.822 26.8132ZM24.6262 14.2855C26.8815 14.2855 28.7624 15.9621 29.0688 18.1323H28.473C27.4092 18.1323 26.5496 17.2728 26.5496 16.2089C26.5496 15.8515 26.2603 15.5706 25.9113 15.5706C25.5624 15.5706 25.273 15.86 25.273 16.2089C25.273 17.2728 24.4135 18.1323 23.3496 18.1323H20.1837C20.4986 15.9621 22.3709 14.2855 24.6262 14.2855ZM21.8433 26.1068L23.6901 28.8813L22.2773 29.5877L20.4305 26.8132L21.8433 26.1068ZM23.9879 33.6217H16.2858V30.4132C16.2858 28.7536 17.5454 27.3919 19.1624 27.2217L21.5284 30.7706C21.7071 31.043 22.056 31.1366 22.3454 30.9919L23.9794 30.1749V33.6302L23.9879 33.6217ZM23.0007 25.5281C23.3241 25.1196 23.2986 24.5238 22.9241 24.1494C22.856 24.0813 22.7284 23.9621 22.6518 23.9025C21.3752 22.9494 20.3879 21.1111 20.1752 19.4174H23.3411C24.3879 19.4174 25.3241 18.9153 25.9113 18.1323C26.4986 18.9153 27.4262 19.4174 28.4816 19.4174H29.0858C28.873 21.1111 27.8773 22.9579 26.6092 23.9111C26.5326 23.9706 26.405 24.0898 26.3369 24.1579C25.9624 24.5323 25.9369 25.1281 26.2603 25.5366L24.6347 27.9791L23.0092 25.5366L23.0007 25.5281ZM25.273 30.1664L26.9071 30.9834C27.1964 31.1281 27.5454 31.0345 27.7241 30.7621L28.7028 29.2983C28.7028 29.2983 28.7113 29.3153 28.7198 29.3238L29.0603 29.6642C28.9667 29.843 28.8901 30.0302 28.822 30.226H28.4901C28.2092 30.226 27.9794 30.4557 27.9794 30.7366V32.7196C27.9794 33.0004 28.2092 33.2302 28.4901 33.2302H28.822C28.8645 33.3664 28.9326 33.494 28.9922 33.6217H25.273V30.1664Z" fill="white"/>
<path d="M33.2473 28.4551C31.443 28.4551 29.9707 29.9274 29.9707 31.7317C29.9707 33.5359 31.443 35.0083 33.2473 35.0083C35.0516 35.0083 36.5239 33.5359 36.5239 31.7317C36.5239 29.9274 35.0516 28.4551 33.2473 28.4551ZM35.5026 31.7317C35.5026 32.9742 34.4899 33.987 33.2473 33.987C32.0047 33.987 30.992 32.9742 30.992 31.7317C30.992 30.4891 32.0047 29.4764 33.2473 29.4764C34.4899 29.4764 35.5026 30.4891 35.5026 31.7317Z" fill="white"/>
</g>
<defs>
<clipPath id="clip0_6082_19105">
<rect width="23.5064" height="24" fill="white" transform="translate(15 13)"/>
</clipPath>
</defs>
</svg>
