<svg width="66" height="68" viewBox="0 0 66 68" fill="none" xmlns="http://www.w3.org/2000/svg">
<path d="M10.2825 34.1896C5.83818 30.6527 3 25.1582 3 18.9965V9.25335C3 7.56276 4.36409 6.18359 6.03619 6.18359H11.5585" stroke="white" stroke-width="5" stroke-miterlimit="10" stroke-linecap="round"/>
<path d="M32.7227 6.18359H38.245C39.9171 6.18359 41.2812 7.56276 41.2812 9.25335V18.9965C41.2812 25.2027 38.377 30.7416 33.8887 34.2785" stroke="white" stroke-width="5" stroke-miterlimit="10" stroke-linecap="round"/>
<path d="M27.2679 37.7242C25.8378 38.8364 24.0557 39.5037 22.1196 39.5037C20.1615 39.5037 18.3354 38.8142 16.9053 37.6797" stroke="white" stroke-width="5" stroke-miterlimit="10" stroke-linecap="round"/>
<path d="M22.1191 39.5488V42.4629" stroke="white" stroke-width="5" stroke-miterlimit="10" stroke-linecap="round"/>
<path d="M51.4695 49.8926C51.4695 57.9674 45.001 64.5295 36.9925 64.5295C28.984 64.5295 22.5156 57.9896 22.5156 49.8926" stroke="white" stroke-width="5" stroke-miterlimit="10" stroke-linecap="round"/>
<path d="M53.8913 48.2799C58.9218 48.2799 62.9999 44.1567 62.9999 39.0706C62.9999 33.9845 58.9218 29.8613 53.8913 29.8613C48.8608 29.8613 44.7827 33.9845 44.7827 39.0706C44.7827 44.1567 48.8608 48.2799 53.8913 48.2799Z" stroke="white" stroke-width="5" stroke-miterlimit="10" stroke-linecap="round"/>
<path d="M55.7132 38.8146C55.7132 39.9063 54.8282 40.7914 53.7365 40.7914C52.6448 40.7914 51.7598 39.9063 51.7598 38.8146C51.7598 37.7229 52.6448 36.8379 53.7365 36.8379C54.8282 36.8379 55.7132 37.7229 55.7132 38.8146Z" fill="white" stroke="white" stroke-width="5"/>
<path d="M11.8879 9.36196C13.6255 9.36196 15.0341 7.93778 15.0341 6.18098C15.0341 4.42417 13.6255 3 11.8879 3C10.1503 3 8.7417 4.42417 8.7417 6.18098C8.7417 7.93778 10.1503 9.36196 11.8879 9.36196Z" fill="white" stroke="white" stroke-width="5" stroke-miterlimit="10"/>
<path d="M31.9514 9.36196C33.689 9.36196 35.0976 7.93778 35.0976 6.18098C35.0976 4.42417 33.689 3 31.9514 3C30.2138 3 28.8052 4.42417 28.8052 6.18098C28.8052 7.93778 30.2138 9.36196 31.9514 9.36196Z" fill="white" stroke="white" stroke-width="5" stroke-miterlimit="10"/>
</svg>
