<svg width="66" height="78" viewBox="0 0 66 78" fill="none" xmlns="http://www.w3.org/2000/svg">
<path d="M36.8744 6.69098H33.4311C33.3381 2.97902 30.3601 0 26.6842 0C23.0084 0 20.0304 2.97902 19.9374 6.69098H16.4941C15.7264 6.69098 15.075 7.32934 15.075 8.13321V11.8452C15.075 12.6254 15.7031 13.2874 16.4941 13.2874H36.8976C37.6654 13.2874 38.3168 12.649 38.3168 11.8452V8.13321C38.3168 7.35299 37.6886 6.69098 36.8976 6.69098H36.8744ZM27.3357 9.45722C25.3581 9.93008 23.6132 8.18049 24.1018 6.17083C24.3345 5.22511 25.079 4.44489 26.0096 4.2321C27.9871 3.75924 29.732 5.50883 29.2434 7.51849C29.0108 8.46421 28.2663 9.24443 27.3357 9.45722Z" fill="white"/>
<path d="M25.5206 71.6626H8.88607C5.62896 71.6626 3 68.9909 3 65.6809V17.3782C3 14.0681 5.62896 11.3965 8.88607 11.3965H44.4584C47.7156 11.3965 50.3445 14.0681 50.3445 17.3782V23.6909" stroke="white" stroke-width="5" stroke-miterlimit="10" stroke-linecap="round"/>
<path d="M60.0918 39.4388L49.0176 35.4904C48.087 35.1594 47.0633 35.1594 46.1327 35.4904L35.0585 39.4388C33.3136 40.0535 32.1504 41.7322 32.1504 43.6236V57.904C32.1504 58.8734 32.29 59.8901 32.5924 60.8831C33.6161 64.3586 36.3846 67.8341 40.805 71.2624C44.0389 73.7685 46.947 75.258 47.0633 75.329C47.2262 75.4235 47.4123 75.4472 47.5752 75.4472C47.738 75.4472 47.9241 75.3999 48.087 75.329C48.2033 75.258 51.1115 73.7685 54.3453 71.2624C58.7657 67.8341 61.5342 64.3586 62.5579 60.8831C62.8604 59.8901 62.9999 58.8734 62.9999 57.904V43.6236C62.9999 41.7322 61.8367 40.0772 60.0918 39.4388Z" stroke="white" stroke-width="5" stroke-miterlimit="10"/>
<path d="M44.6429 45.8695V49.8652C44.6429 50.3854 44.2241 50.8109 43.7123 50.8109H39.7805C39.2686 50.8109 38.8499 51.2365 38.8499 51.7567V55.8469C38.8499 56.3671 39.2686 56.7926 39.7805 56.7926H43.7123C44.2241 56.7926 44.6429 57.2182 44.6429 57.7384V61.734C44.6429 62.2542 45.0616 62.6798 45.5735 62.6798H49.5983C50.1102 62.6798 50.5289 62.2542 50.5289 61.734V57.7384C50.5289 57.2182 50.9477 56.7926 51.4595 56.7926H55.3914C55.9032 56.7926 56.322 56.3671 56.322 55.8469V51.7567C56.322 51.2365 55.9032 50.8109 55.3914 50.8109H51.4595C50.9477 50.8109 50.5289 50.3854 50.5289 49.8652V45.8695C50.5289 45.3494 50.1102 44.9238 49.5983 44.9238H45.5735C45.0616 44.9238 44.6429 45.3494 44.6429 45.8695Z" fill="white"/>
<path d="M13.6799 27.4238H39.6438" stroke="white" stroke-width="5" stroke-miterlimit="10" stroke-linecap="round"/>
<path d="M13.6799 39.0801H24.0096" stroke="white" stroke-width="5" stroke-miterlimit="10" stroke-linecap="round"/>
</svg>
