<svg width="40" height="40" viewBox="0 0 40 40" fill="none" xmlns="http://www.w3.org/2000/svg">
<circle opacity="0.1" cx="20" cy="20" r="20" fill="#816CEC"/>
<path d="M17.3253 25.9835H17.572L17.8565 27.5202C17.9324 27.9187 18.2265 28.1179 18.4921 28.1368C18.5206 28.1368 18.5395 28.1368 18.568 28.1368C18.8431 28.1368 19.1467 28.004 19.2415 27.6151L19.6115 25.974H20.0289L20.3988 27.6151C20.5032 28.0325 20.8447 28.1558 21.1482 28.1368C21.4613 28.1084 21.7174 27.8523 21.7838 27.5202L22.0684 25.9835H22.3056C22.5996 25.9835 22.7324 25.7748 22.7324 25.5566C22.7324 25.3574 22.6186 25.1487 22.3056 25.1487H22.2107L22.3625 24.3234C22.4004 24.1147 22.3625 23.9439 22.2771 23.8111C22.2012 23.7068 22.0874 23.6309 21.9451 23.6119C21.5846 23.555 21.338 23.7352 21.2811 24.0862L21.1103 25.1582H20.7119L20.4652 24.0957C20.3609 23.6404 19.9435 23.6119 19.8107 23.6119C19.6779 23.6119 19.2605 23.6499 19.1561 24.0957L18.9095 25.1677H18.5206L18.3498 24.0957C18.2929 23.7447 18.0368 23.574 17.6763 23.6214C17.534 23.6404 17.4202 23.7163 17.3443 23.8206C17.2494 23.9534 17.221 24.1337 17.2589 24.3424L17.4107 25.1677H17.3253C17.0123 25.1677 16.8984 25.3764 16.8984 25.5756C16.8984 25.7843 17.0312 26.0024 17.3253 26.0024V25.9835ZM18.6439 25.9835H18.7198L18.6818 26.1637L18.6534 25.9835H18.6439ZM19.7917 25.1582L19.8107 25.0728L19.8297 25.1582H19.7917ZM20.9016 25.9835H20.9775L20.949 26.1637L20.9016 25.9835Z" fill="#816CEC"/>
<path d="M16.5281 21.7415H8.6166C8.2751 21.7415 8 21.4663 8 21.1248V18.2885C8 17.947 8.2751 17.6719 8.6166 17.6719H17.4957C17.8372 17.6719 18.1123 17.947 18.1123 18.2885V20.5746C18.1123 20.9162 17.8372 21.1913 17.4957 21.1913C17.3629 21.1913 17.249 21.1533 17.1447 21.0869C17.1447 21.1059 17.1447 21.1154 17.1447 21.1343C17.1447 21.4758 16.8696 21.7509 16.5281 21.7509V21.7415ZM9.2332 20.5082H16.5281C16.6609 20.5082 16.7747 20.5462 16.8791 20.6126C16.8791 20.5936 16.8791 20.5841 16.8791 20.5652V18.8956H9.2332V20.4988V20.5082Z" fill="#816CEC"/>
<path d="M14.6308 27.4055H8.6166C8.2751 27.4055 8 27.1304 8 26.7889V23.9525C8 23.611 8.2751 23.3359 8.6166 23.3359H14.7542C15.0957 23.3359 15.3708 23.611 15.3708 23.9525C15.3708 24.294 15.0957 24.5691 14.7542 24.5691H9.2332V26.1723H14.6308C14.9723 26.1723 15.2474 26.4474 15.2474 26.7889C15.2474 27.1304 14.9723 27.4055 14.6308 27.4055Z" fill="#816CEC"/>
<path d="M9.51748 24.5793C9.17598 24.5793 8.90088 24.3042 8.90088 23.9627V21.1264C8.90088 20.7849 9.17598 20.5098 9.51748 20.5098H16.8788C17.2203 20.5098 17.4954 20.7849 17.4954 21.1264C17.4954 21.4679 17.2203 21.743 16.8788 21.743H10.1341V23.9627C10.1341 24.3042 9.85898 24.5793 9.51748 24.5793Z" fill="#816CEC"/>
<path d="M30.4825 16.0696H21.6034C21.2619 16.0696 20.9868 15.7945 20.9868 15.453V12.6166C20.9868 12.2751 21.2619 12 21.6034 12H30.4825C30.824 12 31.0991 12.2751 31.0991 12.6166V15.453C31.0991 15.7945 30.824 16.0696 30.4825 16.0696ZM22.22 14.8364H29.8659V13.2332H22.22V14.8364Z" fill="#816CEC"/>
<path d="M31.3836 18.9055H22.5045C22.163 18.9055 21.8879 18.6304 21.8879 18.2889V15.4525C21.8879 15.111 22.163 14.8359 22.5045 14.8359H31.3836C31.7251 14.8359 32.0002 15.111 32.0002 15.4525V18.2889C32.0002 18.6304 31.7251 18.9055 31.3836 18.9055ZM23.1211 17.6723H30.767V16.0691H23.1211V17.6723Z" fill="#816CEC"/>
<path d="M30.4827 21.7415H23.0645C22.723 21.7415 22.4479 21.4664 22.4479 21.1248C22.4479 20.7833 22.723 20.5082 23.0645 20.5082H29.8661V18.9051H22.2203V20.2521C22.2203 20.5936 21.9452 20.8687 21.6037 20.8687C21.2622 20.8687 20.9871 20.5936 20.9871 20.2521V18.2885C20.9871 17.947 21.2622 17.6719 21.6037 17.6719H30.4827C30.8242 17.6719 31.0993 17.947 31.0993 18.2885V21.1248C31.0993 21.4664 30.8242 21.7415 30.4827 21.7415Z" fill="#816CEC"/>
<path d="M30.4831 27.4055H25.2467C24.9052 27.4055 24.6301 27.1304 24.6301 26.7889C24.6301 26.4474 24.9052 26.1723 25.2467 26.1723H29.8665V24.5691H25.1139C24.7724 24.5691 24.4973 24.294 24.4973 23.9525C24.4973 23.611 24.7724 23.3359 25.1139 23.3359H30.4926C30.8341 23.3359 31.1092 23.611 31.1092 23.9525V26.7889C31.1092 27.1304 30.8341 27.4055 30.4926 27.4055H30.4831Z" fill="#816CEC"/>
<path d="M31.3837 24.5793H25.1134C24.7719 24.5793 24.4968 24.3042 24.4968 23.9627C24.4968 23.6212 24.7719 23.3461 25.1134 23.3461H30.7671V21.743H23.1972C22.8557 21.743 22.5806 21.4679 22.5806 21.1264C22.5806 20.7849 22.8557 20.5098 23.1972 20.5098H31.3837C31.7253 20.5098 32.0004 20.7849 32.0004 21.1264V23.9627C32.0004 24.3042 31.7253 24.5793 31.3837 24.5793Z" fill="#816CEC"/>
<path d="M19.999 31.6063C16.6978 31.6063 14.0132 28.9217 14.0132 25.6206C14.0132 22.3194 16.6978 19.6348 19.999 19.6348C23.3002 19.6348 25.9848 22.3194 25.9848 25.6206C25.9848 28.9217 23.3002 31.6063 19.999 31.6063ZM19.999 20.868C17.3808 20.868 15.2464 23.0024 15.2464 25.6206C15.2464 28.2387 17.3808 30.3731 19.999 30.3731C22.6172 30.3731 24.7515 28.2387 24.7515 25.6206C24.7515 23.0024 22.6172 20.868 19.999 20.868Z" fill="#816CEC"/>
</svg>
