<svg width="178" height="36" viewBox="0 0 178 36" fill="none" xmlns="http://www.w3.org/2000/svg">
<path d="M69.7676 5.12305V11.4805H73.459V14.2051H69.7676V20.6504H66.5156V5.12305H69.7676ZM69.7676 22.0273V31.6367H66.5156V24.6055H52.1309V22.0273H69.7676ZM61.8574 6.96875V9.60547H53.2148V16.373C58.1953 16.3584 60.9639 16.2119 64.1133 15.5527L64.4648 18.1309C61.0078 18.8926 57.9023 19.0098 52.1309 19.0098H49.9922V6.96875H61.8574ZM97.0137 5.12305V31.6367H93.791V17.3398H88.8105V14.7031H93.791V5.12305H97.0137ZM88.4004 7.4082V10.0742H79.2891V14.8203H87.3457V17.3984H79.2891V22.8477C83.3174 22.833 86.335 22.7012 89.748 22.1445L90.0703 24.7812C86.2031 25.3672 82.834 25.5137 78.0879 25.543H76.0078V7.4082H88.4004ZM109.318 6.96875C113.508 6.93945 116.584 9.60547 116.613 13.3555C116.584 17.1348 113.508 19.7715 109.318 19.7715C105.158 19.7715 102.053 17.1348 102.053 13.3555C102.053 9.60547 105.158 6.93945 109.318 6.96875ZM109.318 9.78125C107.004 9.78125 105.275 11.1582 105.275 13.3555C105.275 15.582 107.004 16.9297 109.318 16.9297C111.662 16.9297 113.42 15.582 113.42 13.3555C113.42 11.1582 111.662 9.78125 109.318 9.78125ZM122.795 5.12305V31.6367H119.543V5.12305H122.795ZM100.852 23.4336C105.627 23.4336 112.248 23.375 117.961 22.5547L118.225 24.9277C112.277 26.0703 105.92 26.0996 101.262 26.0996L100.852 23.4336ZM142.277 6.70508V9.3125H136.711C136.755 12.418 139.04 15.3916 143.215 16.5781L141.574 19.127C138.513 18.2188 136.301 16.2998 135.1 13.8535C133.913 16.4902 131.643 18.5703 128.479 19.5664L126.838 17.0176C131.071 15.7725 133.356 12.5938 133.43 9.3125H127.717V6.70508H142.277ZM148.723 5.12305V19.4785H145.441V5.12305H148.723ZM134.426 20.6504V23.375H145.471V20.6504H148.723V31.2852H131.203V20.6504H134.426ZM134.426 28.6484H145.471V25.8945H134.426V28.6484ZM162.053 11.4805C162.023 16.1973 164.396 21.002 168.498 22.9648L166.506 25.5723C163.635 24.1221 161.569 21.3242 160.441 17.9551C159.284 21.5586 157.116 24.5469 154.084 26.0703L152.092 23.4629C156.34 21.4414 158.771 16.373 158.801 11.4805V7.26172H162.053V11.4805ZM173.332 5.12305V15.4941H177.404V18.2773H173.332V31.6074H170.08V5.12305H173.332Z" fill="#00CBEA"/>
<g clip-path="url(#clip0_2059_16747)">
<path d="M31.769 21.6834C34.0347 21.8816 34.6134 23.308 34.3631 25.3436C34.4183 25.3403 34.4752 25.3371 34.5305 25.3338C34.5857 25.1962 34.6589 25.0636 34.6946 24.9211C34.9092 24.0859 35.1757 23.2834 35.6666 22.5563C36.5248 21.2822 38.6653 21.4067 39.3334 22.8003C39.7576 23.6863 39.821 24.6214 39.7088 25.5582C39.6097 26.3868 39.3772 27.1975 39.2131 27.9721C38.3858 27.8656 37.6804 27.7264 36.9701 27.6937C35.6373 27.6347 34.9791 28.2832 34.9661 29.6294C34.9547 30.7545 35.1286 31.8599 35.4829 32.9276C35.5804 33.2208 35.5024 33.3338 35.2456 33.4501C34.2395 33.9037 33.1733 33.9643 32.1022 33.9299C31.4732 33.9102 30.8344 33.8267 30.2217 33.6793C29.1506 33.4206 28.5541 32.6525 28.4631 31.5798C28.3867 30.6759 28.4679 29.7588 28.4826 28.8482C28.4842 28.7041 28.5086 28.5616 28.5297 28.334C28.4208 28.4323 28.372 28.4699 28.3298 28.5158C25.934 31.1639 22.9011 32.6509 19.4846 33.4353C17.7195 33.8398 15.9284 33.9921 14.1243 33.9954C10.4819 34.002 6.83783 34.0003 3.19543 33.9954C1.67086 33.9954 0.533113 33.2028 0.13978 31.8517C0.042259 31.5176 0.00487604 31.1541 0.00487604 30.8052C0 22.2763 0 13.7489 0 5.21997C0 3.32028 1.21088 2.01179 3.08978 2.00851C7.39532 2.00032 11.7041 1.96593 16.0064 2.09203C19.2847 2.18865 22.3891 3.09101 25.1945 4.8646C28.9295 7.22448 31.1367 10.6226 31.8584 15.0001C32.2095 17.1324 32.19 19.2646 31.7918 21.3903C31.7771 21.4689 31.7788 21.5508 31.769 21.6834ZM9.82196 17.9954C9.82196 20.0818 9.82196 22.1682 9.82196 24.2562C9.82196 24.7131 9.96987 24.9178 10.3535 24.9129C12.2746 24.8933 14.199 24.9195 16.1153 24.8097C17.5391 24.7279 18.8621 24.2104 20.0226 23.3522C21.6057 22.1846 22.3501 20.5551 22.4688 18.621C22.6053 16.361 22.0738 14.3401 20.2486 12.8384C18.9922 11.805 17.518 11.2613 15.9219 11.1713C14.1405 11.0697 12.351 11.0992 10.5664 11.0779C9.95849 11.0714 9.82196 11.2138 9.82196 11.8181C9.82196 13.8783 9.82196 15.9369 9.82196 17.997V17.9954Z" fill="#02CA66"/>
<g filter="url(#filter0_d_2059_16747)">
<path d="M28.3314 28.518C28.3737 28.4721 28.4224 28.4345 28.5313 28.3362C31.1579 25.0691 31.769 21.6856 31.769 21.6856C31.7788 21.553 31.7771 21.4711 31.7934 21.3925C32.1916 19.2668 32.2111 17.1346 31.86 15.0023C31.1384 10.6249 28.9328 7.2267 25.1961 4.86682C22.3908 3.09486 19.2864 2.19087 16.0064 2.09425C11.7041 1.96815 7.39532 2.00418 3.08978 2.01073C1.21088 2.014 0 3.3225 0 5.22219C0 13.7512 0 22.2785 0.00650138 30.8074C0.00650138 31.1579 0.0438843 31.5198 0.141405 31.8539C0.534739 33.205 1.67248 33.996 3.19705 33.9976C6.83945 34.0009 10.4835 34.0025 14.1259 33.9976C15.93 33.9944 17.7211 33.8437 19.4863 33.4375C22.9027 32.6531 25.9356 31.1677 28.3314 28.518ZM22.4688 18.6216C22.3518 20.554 21.6057 22.1851 20.0226 23.3528C18.8605 24.2093 17.5375 24.7284 16.1153 24.8103C14.199 24.92 12.2746 24.8938 10.3535 24.9135C9.96987 24.9168 9.82196 24.7137 9.82196 24.2568C9.82034 22.1704 9.82196 20.084 9.82196 17.996C9.82196 15.9358 9.82196 13.8773 9.82196 11.8171C9.82196 11.2144 9.96012 11.0703 10.5664 11.0768C12.3526 11.0981 14.1405 11.0687 15.9219 11.1702C17.518 11.2619 18.9905 11.804 20.2486 12.8373C22.0722 14.3374 22.6053 16.3583 22.4688 18.6199V18.6216Z" fill="#00E9F8"/>
</g>
</g>
<defs>
<filter id="filter0_d_2059_16747" x="-10" y="-3.99902" width="52.1084" height="52" filterUnits="userSpaceOnUse" color-interpolation-filters="sRGB">
<feFlood flood-opacity="0" result="BackgroundImageFix"/>
<feColorMatrix in="SourceAlpha" type="matrix" values="0 0 0 0 0 0 0 0 0 0 0 0 0 0 0 0 0 0 127 0" result="hardAlpha"/>
<feOffset dy="4"/>
<feGaussianBlur stdDeviation="5"/>
<feComposite in2="hardAlpha" operator="out"/>
<feColorMatrix type="matrix" values="0 0 0 0 0 0 0 0 0 0 0 0 0 0 0 0 0 0 0.05 0"/>
<feBlend mode="normal" in2="BackgroundImageFix" result="effect1_dropShadow_2059_16747"/>
<feBlend mode="normal" in="SourceGraphic" in2="effect1_dropShadow_2059_16747" result="shape"/>
</filter>
<clipPath id="clip0_2059_16747">
<rect width="39.7576" height="32" fill="white" transform="translate(0 2)"/>
</clipPath>
</defs>
</svg>
