<svg width="40" height="40" viewBox="0 0 40 40" fill="none" xmlns="http://www.w3.org/2000/svg">
<circle opacity="0.1" cx="20" cy="20" r="20" fill="#02CA66"/>
<g clip-path="url(#clip0_973_67908)">
<path d="M22.4718 24.9208H22.3769L22.5287 24.0952C22.5667 23.8864 22.5287 23.7156 22.4433 23.5827C22.3674 23.4783 22.2535 23.4024 22.1111 23.3834C21.7505 23.3265 21.5038 23.5068 21.4468 23.8579L21.276 24.9303H20.8774L20.6307 23.8674C20.5263 23.4119 20.1088 23.3834 19.9759 23.3834C19.843 23.3834 19.4255 23.4214 19.3211 23.8674L19.0744 24.9398H18.6853L18.5145 23.8674C18.4575 23.5163 18.2013 23.3455 17.8407 23.3929C17.6983 23.4119 17.5844 23.4878 17.5085 23.5922C17.4136 23.7251 17.3852 23.9054 17.4231 24.1141L17.575 24.9398H17.4895C17.1764 24.9398 17.0625 25.1485 17.0625 25.3478C17.0625 25.5566 17.1954 25.7749 17.4895 25.7749H17.7363L18.021 27.3122C18.0969 27.7108 18.3911 27.9101 18.6568 27.9291C18.6853 27.9291 18.7043 27.9291 18.7327 27.9291C19.0079 27.9291 19.3116 27.7962 19.4065 27.4071L19.7766 25.7654H20.1942L20.5643 27.4071C20.6687 27.8247 21.0103 27.9481 21.314 27.9291C21.6272 27.9006 21.8834 27.6444 21.9498 27.3122L22.2345 25.7749H22.4718C22.7659 25.7749 22.8988 25.5661 22.8988 25.3478C22.8988 25.1485 22.7849 24.9398 22.4718 24.9398V24.9208ZM18.8466 25.9362L18.8181 25.7559H18.8941L18.8561 25.9362H18.8466ZM19.9664 24.9208L19.9854 24.8354L20.0044 24.9208H19.9664ZM21.1242 25.9362L21.0767 25.7559H21.1527L21.1242 25.9362Z" fill="#02CA66"/>
<path d="M23.3079 19.1121C22.9947 18.1252 23.8109 16.7017 24.162 16.2272C24.3043 16.0374 24.3233 15.7906 24.2189 15.5819C24.1145 15.3731 23.9058 15.2402 23.6685 15.2402H16.3613C16.124 15.2402 15.9153 15.3731 15.8109 15.5819C15.7065 15.7906 15.7255 16.0374 15.8678 16.2272C16.2189 16.7017 17.0351 18.1157 16.7219 19.1121L14.9568 21.4466C13.7516 23.0504 13.334 25.0813 13.8085 27.0362C14.283 28.9627 15.5641 30.5475 17.3482 31.3921C18.2023 31.8001 19.0944 32.0089 20.0149 32.0089C21.0588 32.0089 22.0742 31.7432 23.0327 31.2118C24.6934 30.3007 25.8702 28.7064 26.2688 26.8464C26.6768 24.9579 26.2403 22.9935 25.0825 21.4561L23.3269 19.1121H23.3079ZM22.5867 16.4739C22.283 17.0908 21.9698 17.9354 22.0078 18.7705H18.022C18.06 17.9354 17.7468 17.1003 17.4431 16.4739H22.5867ZM25.0446 26.5807C24.7219 28.0896 23.7634 29.3802 22.4253 30.1204C20.9829 30.9176 19.3411 30.965 17.8702 30.2723C16.4277 29.589 15.3838 28.2984 15.0042 26.7325C14.6151 25.1477 14.9568 23.487 15.9437 22.1774L17.595 19.9947H22.4443L24.0956 22.1869C25.0351 23.4395 25.3862 25.0433 25.054 26.5807H25.0446Z" fill="#02CA66"/>
<path d="M31.8588 12.1471L28.376 8.19929C28.1388 7.93357 27.6833 7.93357 27.446 8.19929L23.9632 12.1471C23.8019 12.3274 23.7639 12.5836 23.8683 12.8114C23.9727 13.0297 24.191 13.172 24.4282 13.172H25.8707V17.8505C25.8707 18.1922 26.1459 18.4674 26.4875 18.4674H29.325C29.6667 18.4674 29.9419 18.1922 29.9419 17.8505V13.172H31.3843C31.6311 13.172 31.8493 13.0297 31.9442 12.8114C32.0391 12.5931 32.0012 12.3274 31.8493 12.1471H31.8588ZM29.3345 11.9383C28.9929 11.9383 28.7177 12.2135 28.7177 12.5552V17.2337H27.1139V12.5552C27.1139 12.2135 26.8387 11.9383 26.497 11.9383H25.8043L27.9205 9.53737L30.0368 11.9383H29.3345Z" fill="#02CA66"/>
<path d="M14.1294 17.8505V13.172H15.5718C15.8186 13.172 16.0368 13.0297 16.1317 12.8114C16.2266 12.5931 16.1887 12.3274 16.0368 12.1471L12.554 8.19929C12.3168 7.93357 11.8613 7.93357 11.624 8.19929L8.15072 12.1471C7.98939 12.3274 7.95143 12.5836 8.05582 12.8114C8.16021 13.0297 8.37848 13.172 8.61573 13.172H10.0582V17.8505C10.0582 18.1922 10.3334 18.4674 10.675 18.4674H13.5125C13.8542 18.4674 14.1294 18.1922 14.1294 17.8505ZM12.8957 12.5552V17.2337H11.2919V12.5552C11.2919 12.2135 11.0167 11.9383 10.675 11.9383H9.98228L12.0985 9.53737L14.2148 11.9383H13.522C13.1804 11.9383 12.9052 12.2135 12.9052 12.5552H12.8957Z" fill="#02CA66"/>
</g>
<defs>
<clipPath id="clip0_973_67908">
<rect width="24.0095" height="24" fill="white" transform="translate(8 8)"/>
</clipPath>
</defs>
</svg>
