<svg width="66" height="73" viewBox="0 0 66 73" fill="none" xmlns="http://www.w3.org/2000/svg">
<path d="M20.9054 64.5662H6.08559C4.37387 64.5662 3 63.1258 3 61.3834V11.6193C3 6.8566 6.73874 3 11.3559 3H31.6937C36.3108 3 39.2387 6.8566 39.2387 11.6193V24.8154H56.1532C59.9369 24.8154 63 27.975 63 31.878V38.4296" stroke="white" stroke-width="5" stroke-miterlimit="10" stroke-linecap="round"/>
<path d="M18.1804 12.4316H12.3921V18.4024H18.1804V12.4316Z" fill="white"/>
<path d="M18.1804 24.1895H12.3921V30.1602H18.1804V24.1895Z" fill="white"/>
<path d="M29.7326 12.4316H23.9443V18.4024H29.7326V12.4316Z" fill="white"/>
<path d="M50.8928 55.8615C51.3904 52.6821 49.2951 49.6886 46.2128 49.1754C43.1306 48.6621 40.2285 50.8235 39.731 54.0029C39.2334 57.1823 41.3287 60.1758 44.411 60.6891C47.4932 61.2023 50.3952 59.041 50.8928 55.8615Z" fill="white"/>
<path d="M60.9717 51.1144H59.1023C58.7645 49.7901 58.2465 48.5588 57.5708 47.3972L59.1924 45.7244C59.733 45.1669 59.733 44.2608 59.1924 43.68L55.9267 40.3113C55.3861 39.7537 54.5077 39.7537 53.9447 40.3113L52.323 41.984L52.5708 42.2396C51.4672 41.5658 50.251 41.0315 48.9672 40.6597V38.29C48.9672 37.5001 48.3366 36.8496 47.5708 36.8496H42.9537C42.1879 36.8496 41.5573 37.5001 41.5573 38.29V40.6597C40.3411 41.0082 39.1924 41.4961 38.1113 42.1234L36.6924 40.6597C36.1519 40.1022 35.2735 40.1022 34.7104 40.6597L31.4447 44.0285C30.9041 44.586 30.9041 45.4921 31.4447 46.0729L32.8636 47.5366C32.233 48.6517 31.76 49.8366 31.4221 51.1144H29.1474C28.3816 51.1144 27.751 51.7649 27.751 52.5548V57.3175C27.751 58.1074 28.3816 58.7579 29.1474 58.7579H31.4447C31.76 59.9892 32.233 61.1276 32.8185 62.2195L31.4447 63.6367C30.9041 64.1943 30.9041 65.1004 31.4447 65.6812L34.7104 69.0499C35.251 69.6075 36.1294 69.6075 36.6924 69.0499L38.0438 67.656C39.305 68.4226 40.7014 68.9802 42.1654 69.3287V71.0944C42.1654 71.8843 42.796 72.5348 43.5618 72.5348H48.1789C48.9447 72.5348 49.5753 71.8843 49.5753 71.0944V68.9802C50.6339 68.6317 51.6248 68.1671 52.5483 67.6095L53.9447 69.0499C54.4852 69.6075 55.3636 69.6075 55.9267 69.0499L59.1924 65.6812C59.733 65.1236 59.733 64.2175 59.1924 63.6367L57.7285 62.1266C58.314 61.0579 58.7645 59.9428 59.0798 58.7347H60.9492C61.7149 58.7347 62.3456 58.0842 62.3456 57.2942V52.5316C62.3456 51.7417 61.7149 51.0912 60.9492 51.0912L60.9717 51.1144ZM45.296 66.4943C39.1249 66.4943 34.0798 61.3135 34.0798 54.9245C34.0798 48.5356 39.1023 43.3547 45.296 43.3547C51.4897 43.3547 56.5122 48.5356 56.5122 54.9245C56.5122 61.3135 51.4897 66.4943 45.296 66.4943Z" fill="white"/>
</svg>
