<svg width="40" height="40" viewBox="0 0 40 40" fill="none" xmlns="http://www.w3.org/2000/svg">
<circle opacity="0.1" cx="20" cy="20" r="20" fill="#00CBEA"/>
<path d="M12.7153 16.431H12.9206L13.1616 17.7074C13.2241 18.0377 13.474 18.2073 13.6882 18.2251C13.7061 18.2251 13.7239 18.2251 13.7507 18.2251C13.9828 18.2251 14.2327 18.1091 14.313 17.7877L14.6255 16.4221H14.9736L15.286 17.7877C15.3663 18.1359 15.6519 18.243 15.9108 18.2162C16.1696 18.1894 16.3839 17.9841 16.4374 17.6985L16.6695 16.4221H16.8659C17.1158 16.4221 17.2229 16.2436 17.2229 16.074C17.2229 15.9133 17.1247 15.7348 16.8659 15.7348H16.7855L16.9194 15.0475C16.9551 14.8779 16.9194 14.7261 16.848 14.619C16.7855 14.5298 16.6873 14.4762 16.5713 14.4494C16.2678 14.4048 16.0625 14.5476 16.0179 14.8422L15.8751 15.7348H15.5448L15.3395 14.8511C15.2503 14.4762 14.9022 14.4494 14.795 14.4494C14.6879 14.4494 14.3398 14.4762 14.2506 14.8511L14.0453 15.7437H13.715L13.5722 14.8511C13.5276 14.5565 13.3133 14.4137 13.0188 14.4584C12.9027 14.4762 12.8046 14.5387 12.7421 14.628C12.6617 14.7351 12.6439 14.8868 12.6707 15.0653L12.7956 15.7526H12.7242C12.4654 15.7526 12.3672 15.9311 12.3672 16.0918C12.3672 16.2703 12.4743 16.4399 12.7242 16.4399L12.7153 16.431ZM13.8132 16.431H13.8757L13.84 16.5827L13.8132 16.431ZM14.7683 15.7437L14.7861 15.6723L14.804 15.7437H14.7683ZM15.6966 16.431H15.7591L15.7323 16.5827L15.6966 16.431Z" fill="#00CBEA"/>
<path d="M28.8376 16.9318H26.3294C26.0081 16.9318 25.7492 16.6729 25.7492 16.3516V14.3343H25.0709C24.8388 14.3343 24.6246 14.1915 24.5353 13.9773C24.446 13.763 24.4996 13.5131 24.6603 13.3435L27.1685 10.8353C27.3916 10.6122 27.7665 10.6122 27.9897 10.8353L30.4978 13.3435C30.6674 13.5131 30.7121 13.763 30.6228 13.9773C30.5336 14.1915 30.3193 14.3343 30.0873 14.3343H29.4089V16.3516C29.4089 16.6729 29.15 16.9318 28.8287 16.9318H28.8376ZM26.9096 15.7714H28.2574V13.7541C28.2574 13.4774 28.4538 13.2453 28.7037 13.1918L27.5791 12.0671L26.4544 13.1918C26.7132 13.2543 26.9007 13.4774 26.9007 13.7541V15.7714H26.9096Z" fill="#00CBEA"/>
<path d="M14.939 21.8689C11.8506 21.8689 9.3335 19.3607 9.3335 16.2724C9.3335 13.184 11.8506 10.6758 14.939 10.6758C18.0274 10.6758 20.5445 13.184 20.5445 16.2724C20.5445 19.3607 18.0274 21.8689 14.939 21.8689ZM14.939 11.8272C12.4933 11.8272 10.5028 13.8177 10.5028 16.2724C10.5028 18.727 12.4933 20.7175 14.939 20.7175C17.3847 20.7175 19.3752 18.727 19.3752 16.2724C19.3752 13.8177 17.3847 11.8272 14.939 11.8272Z" fill="#00CBEA"/>
<path d="M28.8359 31.9974C28.5146 31.9974 28.2558 31.7385 28.2558 31.4172V19.4475H26.9079V31.4172C26.9079 31.7385 26.6491 31.9974 26.3277 31.9974C26.0064 31.9974 25.7476 31.7385 25.7476 31.4172V18.8673C25.7476 18.546 26.0064 18.2871 26.3277 18.2871H28.8359C29.1573 18.2871 29.4161 18.546 29.4161 18.8673V31.4172C29.4161 31.7385 29.1573 31.9974 28.8359 31.9974Z" fill="#00CBEA"/>
<path d="M28.8359 21.9553H26.3277C26.0064 21.9553 25.7476 21.6964 25.7476 21.3751C25.7476 21.0538 26.0064 20.7949 26.3277 20.7949H28.8359C29.1573 20.7949 29.4161 21.0538 29.4161 21.3751C29.4161 21.6964 29.1573 21.9553 28.8359 21.9553Z" fill="#00CBEA"/>
<path d="M23.8125 31.997C23.4912 31.997 23.2323 31.7381 23.2323 31.4168V21.9553H21.8845V31.4168C21.8845 31.7381 21.6256 31.997 21.3043 31.997C20.983 31.997 20.7241 31.7381 20.7241 31.4168V21.3751C20.7241 21.0538 20.983 20.7949 21.3043 20.7949H23.8125C24.1338 20.7949 24.3927 21.0538 24.3927 21.3751V31.4168C24.3927 31.7381 24.1338 31.997 23.8125 31.997Z" fill="#00CBEA"/>
<path d="M23.8125 24.4651H21.3043C20.983 24.4651 20.7241 24.2062 20.7241 23.8849C20.7241 23.5635 20.983 23.3047 21.3043 23.3047H23.8125C24.1338 23.3047 24.3927 23.5635 24.3927 23.8849C24.3927 24.2062 24.1338 24.4651 23.8125 24.4651Z" fill="#00CBEA"/>
<path d="M18.7942 31.9986C18.4729 31.9986 18.214 31.7397 18.214 31.4184V24.4651H16.8662V31.4184C16.8662 31.7397 16.6073 31.9986 16.286 31.9986C15.9647 31.9986 15.7058 31.7397 15.7058 31.4184V23.8849C15.7058 23.5635 15.9647 23.3047 16.286 23.3047H18.7942C19.1155 23.3047 19.3744 23.5635 19.3744 23.8849V31.4184C19.3744 31.7397 19.1155 31.9986 18.7942 31.9986Z" fill="#00CBEA"/>
<path d="M18.7942 26.9729H16.286C15.9647 26.9729 15.7058 26.714 15.7058 26.3927C15.7058 26.0714 15.9647 25.8125 16.286 25.8125H18.7942C19.1155 25.8125 19.3744 26.0714 19.3744 26.3927C19.3744 26.714 19.1155 26.9729 18.7942 26.9729Z" fill="#00CBEA"/>
<path d="M13.7708 31.9971C13.4494 31.9971 13.1906 31.7382 13.1906 31.4169V26.9718H11.8427V31.4169C11.8427 31.7382 11.5839 31.9971 11.2626 31.9971C10.9412 31.9971 10.6824 31.7382 10.6824 31.4169V26.4005C10.6824 26.0792 10.9412 25.8203 11.2626 25.8203H13.7708C14.0921 25.8203 14.3509 26.0792 14.3509 26.4005V31.4169C14.3509 31.7382 14.0921 31.9971 13.7708 31.9971Z" fill="#00CBEA"/>
<path d="M30.0852 31.9963H9.9215C9.60016 31.9963 9.34131 31.7375 9.34131 31.4161C9.34131 31.0948 9.60016 30.8359 9.9215 30.8359H30.0852C30.4066 30.8359 30.6654 31.0948 30.6654 31.4161C30.6654 31.7375 30.4066 31.9963 30.0852 31.9963Z" fill="#00CBEA"/>
<path d="M13.7708 29.4807H11.2626C10.9412 29.4807 10.6824 29.2218 10.6824 28.9005C10.6824 28.5792 10.9412 28.3203 11.2626 28.3203H13.7708C14.0921 28.3203 14.3509 28.5792 14.3509 28.9005C14.3509 29.2218 14.0921 29.4807 13.7708 29.4807Z" fill="#00CBEA"/>
</svg>
