<svg width="50" height="50" viewBox="0 0 50 50" fill="none" xmlns="http://www.w3.org/2000/svg">
<circle cx="25" cy="25" r="24.5" fill="#FFC83B" fill-opacity="0.8" stroke="#DEE2E5"/>
<g clip-path="url(#clip0_6082_19106)">
<path d="M30.345 27.1534L27.7902 25.876C29.5897 24.3842 30.8765 21.6895 30.8765 19.3212C30.8765 15.8341 28.042 12.9902 24.5455 12.9902C21.049 12.9902 18.2145 15.8247 18.2145 19.3212C18.2145 21.6895 19.5012 24.3842 21.3007 25.876L18.7459 27.1534C16.1166 27.2466 14 29.4191 14 32.0672V36.2816C14 36.6732 14.317 36.9809 14.6993 36.9809H34.3823C34.7739 36.9809 35.0816 36.6639 35.0816 36.2816V32.0672C35.0816 29.4098 32.965 27.2373 30.3357 27.1534H30.345ZM29.1422 28.1231L27.1189 31.1627L25.5711 30.3888L27.5944 27.3492L29.1422 28.1231ZM24.5455 14.4075C27.0163 14.4075 29.0769 16.2443 29.4126 18.6219H28.7599C27.5944 18.6219 26.6527 17.6802 26.6527 16.5147C26.6527 16.1231 26.3357 15.8154 25.9534 15.8154C25.5711 15.8154 25.2541 16.1324 25.2541 16.5147C25.2541 17.6802 24.3124 18.6219 23.1469 18.6219H19.6783C20.0233 16.2443 22.0746 14.4075 24.5455 14.4075ZM21.4965 27.3585L23.5198 30.3982L21.972 31.1721L19.9487 28.1324L21.4965 27.3585ZM23.8462 35.5916H15.4079V32.0765C15.4079 30.2583 16.7879 28.7665 18.5594 28.58L21.1515 32.4681C21.3473 32.7665 21.7296 32.869 22.0466 32.7105L23.8368 31.8154V35.601L23.8462 35.5916ZM22.7646 26.7245C23.1189 26.2769 23.0909 25.6243 22.6807 25.214C22.6061 25.1394 22.4662 25.0089 22.3823 24.9436C20.9837 23.8993 19.9021 21.8853 19.669 20.0299H23.1375C24.2844 20.0299 25.31 19.4797 25.9534 18.6219C26.5967 19.4797 27.6131 20.0299 28.7692 20.0299H29.4312C29.1981 21.8853 28.1072 23.9086 26.7179 24.9529C26.634 25.0182 26.4942 25.1487 26.4196 25.2233C26.0093 25.6336 25.9814 26.2863 26.3357 26.7338L24.5548 29.4098L22.7739 26.7338L22.7646 26.7245ZM33.683 35.5916H25.2448V31.8061L27.035 32.7012C27.352 32.8597 27.7343 32.7571 27.9301 32.4588L30.5221 28.5707C32.2937 28.7571 33.6737 30.249 33.6737 32.0672V35.5823L33.683 35.5916Z" fill="white"/>
<path d="M31.5757 32.7754H28.7598C28.3682 32.7754 28.0605 33.0924 28.0605 33.4747C28.0605 33.857 28.3776 34.174 28.7598 34.174H31.5757C31.9673 34.174 32.275 33.857 32.275 33.4747C32.275 33.0924 31.958 32.7754 31.5757 32.7754Z" fill="white"/>
</g>
<defs>
<clipPath id="clip0_6082_19106">
<rect width="21.0909" height="24" fill="white" transform="translate(14 13)"/>
</clipPath>
</defs>
</svg>
