<svg width="40" height="40" viewBox="0 0 40 40" fill="none" xmlns="http://www.w3.org/2000/svg">
<circle opacity="0.1" cx="20" cy="20" r="20" fill="#FCA31D"/>
<path d="M27.0663 21.4941L27.0574 21.5386H27.0751L27.0663 21.4941Z" fill="#FCA31D"/>
<path d="M17.0136 26.0176H14.0269C13.7424 26.0176 13.5024 26.2487 13.5024 26.542C13.5024 26.8354 13.7336 27.0665 14.0269 27.0665H17.0136C17.298 27.0665 17.538 26.8354 17.538 26.542C17.538 26.2487 17.3069 26.0176 17.0136 26.0176Z" fill="#FCA31D"/>
<path d="M30.9779 26.0609L26.9423 22.0254V10.6831C26.9423 9.93648 26.3379 9.33203 25.5912 9.33203H12.0179C11.2712 9.33203 10.6667 9.93648 10.6667 10.6831V29.3143C10.6667 30.0609 11.2712 30.6654 12.0179 30.6654H25.5912C26.3379 30.6654 26.9423 30.0609 26.9423 29.3143V28.0076L27.9823 29.0476C28.3201 29.3854 28.7645 29.5543 29.209 29.5543C29.6534 29.5543 30.0979 29.3854 30.4356 29.0476L30.9779 28.5054C31.6534 27.8298 31.6534 26.7276 30.9779 26.052V26.0609ZM21.2979 23.732C18.7734 23.732 16.7201 21.6787 16.7201 19.1543C16.7201 16.6298 18.7734 14.5765 21.2979 14.5765C23.8223 14.5765 25.8756 16.6298 25.8756 19.1543C25.8756 21.6787 23.8223 23.732 21.2979 23.732ZM25.9023 29.3143C25.9023 29.4831 25.7601 29.6254 25.5912 29.6254H12.0179C11.849 29.6254 11.7067 29.4831 11.7067 29.3143V10.6831C11.7067 10.5143 11.849 10.372 12.0179 10.372H25.5912C25.7601 10.372 25.9023 10.5143 25.9023 10.6831V15.9365C24.889 14.4787 23.2001 13.5276 21.2979 13.5276C21.2267 13.5276 21.1645 13.5276 21.0934 13.5365H14.0267C13.7423 13.5365 13.5023 13.7676 13.5023 14.0609C13.5023 14.3543 13.7334 14.5854 14.0267 14.5854H18.0445C17.529 14.9587 17.0756 15.412 16.7023 15.9365H14.0267C13.7423 15.9365 13.5023 16.1676 13.5023 16.4609C13.5023 16.7543 13.7334 16.9854 14.0267 16.9854H16.1245C15.9467 17.412 15.8223 17.8654 15.7512 18.3365H14.0267C13.7423 18.3365 13.5023 18.5676 13.5023 18.8609C13.5023 19.1543 13.7334 19.3854 14.0267 19.3854H15.689C15.7156 20.0431 15.849 20.6743 16.0801 21.252H14.0179C13.7334 21.252 13.4934 21.4831 13.4934 21.7765C13.4934 22.0698 13.7245 22.3009 14.0179 22.3009H16.6223C16.969 22.8165 17.4045 23.2698 17.9023 23.652H14.0267C13.7423 23.652 13.5023 23.8831 13.5023 24.1765C13.5023 24.4698 13.7334 24.7009 14.0267 24.7009H20.2134C20.569 24.772 20.9245 24.8076 21.2979 24.8076C22.009 24.8076 22.6934 24.6654 23.3245 24.4254L25.9023 27.0031V29.3498V29.3143ZM30.2401 27.7765L29.7067 28.3187C29.4312 28.5854 28.9956 28.5854 28.729 28.3187L24.3112 23.9009C24.9245 23.5098 25.449 23.012 25.8756 22.4254L30.2579 26.7987C30.5245 27.0654 30.5245 27.5098 30.2579 27.7765H30.2401Z" fill="#FCA31D"/>
<path d="M23.6168 18.4794H23.5279L23.6701 17.7061C23.7056 17.5105 23.6701 17.3505 23.5901 17.2261C23.519 17.1283 23.4123 17.0661 23.2879 17.0394C22.9501 16.9861 22.719 17.1549 22.6656 17.4749L22.5056 18.4794H22.1323L21.9012 17.4838C21.8034 17.0661 21.4123 17.0305 21.2879 17.0305C21.1634 17.0305 20.7723 17.0661 20.6745 17.4838L20.4434 18.4794H20.079L19.919 17.4749C19.8656 17.1461 19.6256 16.9861 19.2968 17.0394C19.1634 17.0572 19.0568 17.1283 18.9856 17.2261C18.8968 17.3505 18.8701 17.5194 18.9056 17.7149L19.0479 18.4794H18.9679C18.6745 18.4794 18.5679 18.6749 18.5679 18.8616C18.5679 19.0572 18.6923 19.2527 18.9679 19.2527H19.1901L19.4568 20.6838C19.5279 21.0572 19.8034 21.2438 20.0523 21.2616C20.079 21.2616 20.0968 21.2616 20.1234 21.2616C20.3812 21.2616 20.6656 21.1372 20.7545 20.7727L21.1012 19.2438H21.4923L21.839 20.7727C21.9368 21.1638 22.2568 21.2794 22.5323 21.2527C22.8256 21.2261 23.0656 20.9861 23.1279 20.6749L23.3945 19.2438H23.6168C23.8923 19.2438 24.0168 19.0483 24.0168 18.8527C24.0168 18.6661 23.9101 18.4705 23.6168 18.4705V18.4794ZM20.239 19.4216L20.2123 19.2527H20.2834L20.2479 19.4216H20.239ZM21.279 18.4794L21.2968 18.3994L21.3145 18.4794H21.279ZM22.3545 19.4216L22.3101 19.2527H22.3812L22.3545 19.4216Z" fill="#FCA31D"/>
</svg>
