<svg width="50" height="50" viewBox="0 0 50 50" fill="none" xmlns="http://www.w3.org/2000/svg">
<circle cx="25" cy="25" r="24.5" fill="#816CEC" fill-opacity="0.8" stroke="#DEE2E5"/>
<g clip-path="url(#clip0_6082_19104)">
<path d="M33.2898 18.0104C33.6764 18.0104 33.9898 17.697 33.9898 17.3104C33.9898 16.9238 33.6764 16.6104 33.2898 16.6104C32.9032 16.6104 32.5898 16.9238 32.5898 17.3104C32.5898 17.697 32.9032 18.0104 33.2898 18.0104Z" fill="white"/>
<path d="M30.5008 18.0104C30.8874 18.0104 31.2008 17.697 31.2008 17.3104C31.2008 16.9238 30.8874 16.6104 30.5008 16.6104C30.1142 16.6104 29.8008 16.9238 29.8008 17.3104C29.8008 17.697 30.1142 18.0104 30.5008 18.0104Z" fill="white"/>
<path d="M27.7195 18.0104C28.1061 18.0104 28.4195 17.697 28.4195 17.3104C28.4195 16.9238 28.1061 16.6104 27.7195 16.6104C27.3329 16.6104 27.0195 16.9238 27.0195 17.3104C27.0195 17.697 27.3329 18.0104 27.7195 18.0104Z" fill="white"/>
<path d="M13.7 34.05H18.27C18.18 34.3 18.24 34.58 18.43 34.78L20.32 36.66C20.57 36.91 20.97 36.93 21.25 36.71L22.67 35.57L22.87 37.38C22.91 37.73 23.21 38 23.56 38H26.22C26.57 38 26.87 37.73 26.91 37.38L27.11 35.54L28.55 36.69C28.83 36.91 29.23 36.89 29.48 36.64L31.36 34.75C31.55 34.56 31.61 34.29 31.53 34.05H36.07C36.45 34.05 36.77 33.74 36.77 33.35V14.7C36.77 14.32 36.46 14 36.07 14H13.7C13.32 14 13 14.31 13 14.7V33.36C13 33.74 13.31 34.06 13.7 34.06V34.05ZM28.94 35.21L27.56 34.11C27.35 33.94 27.06 33.91 26.81 34.03C26.63 34.12 26.45 34.2 26.26 34.26C26 34.35 25.82 34.57 25.79 34.84L25.6 36.6H24.18L23.99 34.84C23.96 34.57 23.78 34.34 23.52 34.26C23.34 34.2 23.16 34.12 22.99 34.04C22.75 33.92 22.46 33.95 22.24 34.12L20.86 35.23L19.86 34.23L20.96 32.85C21.13 32.64 21.16 32.35 21.04 32.1C20.95 31.92 20.87 31.74 20.81 31.55C20.72 31.29 20.5 31.11 20.23 31.08L18.47 30.89V29.47L20.23 29.28C20.5 29.25 20.73 29.07 20.81 28.81C20.87 28.63 20.95 28.45 21.03 28.28C21.15 28.04 21.12 27.75 20.95 27.53L19.84 26.15L20.84 25.15L22.22 26.25C22.43 26.42 22.72 26.45 22.97 26.33C23.15 26.24 23.33 26.16 23.52 26.1C23.78 26.01 23.96 25.79 23.99 25.52L24.18 23.76H25.6L25.79 25.52C25.82 25.79 26 26.02 26.26 26.1C26.44 26.16 26.62 26.24 26.79 26.32C27.03 26.44 27.32 26.41 27.54 26.24L28.92 25.13L29.92 26.13L28.82 27.51C28.65 27.72 28.62 28.01 28.74 28.26C28.83 28.44 28.91 28.62 28.97 28.81C29.06 29.07 29.28 29.25 29.55 29.28L31.31 29.47V30.89L29.55 31.08C29.28 31.11 29.05 31.29 28.97 31.55C28.91 31.73 28.83 31.91 28.75 32.08C28.63 32.32 28.66 32.61 28.83 32.83L29.6 33.79L29.93 34.2L28.93 35.2L28.94 35.21ZM14.39 15.39H35.37V19.57H14.39V15.39ZM14.39 20.96H35.37V32.66H30.47L30.27 32.41L32.08 32.21C32.43 32.17 32.7 31.87 32.7 31.52V28.86C32.7 28.51 32.43 28.21 32.08 28.17L30.24 27.97L31.39 26.53C31.61 26.25 31.59 25.85 31.34 25.6L29.45 23.72C29.2 23.47 28.8 23.45 28.52 23.67L27.1 24.81L26.9 23C26.86 22.65 26.56 22.38 26.21 22.38H23.55C23.2 22.38 22.9 22.65 22.86 23L22.66 24.84L21.22 23.69C20.94 23.47 20.54 23.49 20.29 23.74L18.41 25.63C18.16 25.88 18.14 26.28 18.36 26.56L19.5 27.98L17.69 28.18C17.34 28.22 17.07 28.52 17.07 28.87V31.53C17.07 31.88 17.34 32.18 17.69 32.22L19.53 32.42L19.33 32.67H14.39V20.96Z" fill="white"/>
<path d="M21.7393 17.3104C21.7393 16.9304 21.4293 16.6104 21.0393 16.6104H16.4793C16.0993 16.6104 15.7793 16.9204 15.7793 17.3104C15.7793 17.7004 16.0893 18.0104 16.4793 18.0104H21.0493C21.4293 18.0104 21.7493 17.7004 21.7493 17.3104H21.7393Z" fill="white"/>
<path d="M24.8805 27.29C23.2805 27.29 21.9805 28.59 21.9805 30.19C21.9805 31.79 23.2805 33.09 24.8805 33.09C26.4805 33.09 27.7805 31.79 27.7805 30.19C27.7805 28.59 26.4805 27.29 24.8805 27.29ZM24.8805 31.69C24.0505 31.69 23.3805 31.02 23.3805 30.19C23.3805 29.36 24.0505 28.69 24.8805 28.69C25.7105 28.69 26.3805 29.36 26.3805 30.19C26.3805 31.02 25.7105 31.69 24.8805 31.69Z" fill="white"/>
</g>
<defs>
<clipPath id="clip0_6082_19104">
<rect width="23.77" height="24" fill="white" transform="translate(13 14)"/>
</clipPath>
</defs>
</svg>
