<svg width="50" height="50" viewBox="0 0 50 50" fill="none" xmlns="http://www.w3.org/2000/svg">
<circle cx="25" cy="25" r="24.5" fill="#F47289" fill-opacity="0.8" stroke="#DEE2E5"/>
<g clip-path="url(#clip0_6082_19103)">
<path d="M34.0068 29.2215H33.9309L34.0542 28.5669C34.0827 28.4057 34.0542 28.2634 33.9878 28.159C33.9309 28.0737 33.836 28.0167 33.7317 27.9978C33.4471 27.9503 33.2479 28.0926 33.2005 28.3677L33.0676 29.2215H32.7546L32.5554 28.3772C32.47 28.0167 32.138 27.9883 32.0337 27.9883C31.9293 27.9883 31.5973 28.0167 31.5214 28.3772L31.3222 29.2215H31.0091L30.8763 28.3677C30.8289 28.0926 30.6297 27.9503 30.3451 27.9978C30.2313 28.0167 30.1459 28.0737 30.0795 28.159C30.0036 28.2634 29.9846 28.4057 30.0131 28.5669L30.1364 29.2215H30.07C29.8234 29.2215 29.7285 29.3922 29.7285 29.544C29.7285 29.7148 29.8329 29.876 30.07 29.876H30.2597L30.4874 31.0903C30.5443 31.4033 30.7815 31.5646 30.9902 31.5835C31.0091 31.5835 31.0281 31.5835 31.0471 31.5835C31.2653 31.5835 31.5119 31.4792 31.5783 31.1661L31.8724 29.8665H32.2044L32.4985 31.1661C32.5744 31.4982 32.8495 31.593 33.0866 31.5741C33.3333 31.5551 33.542 31.3464 33.5894 31.0808L33.8171 29.8665H34.0068C34.2439 29.8665 34.3483 29.6958 34.3483 29.5345C34.3483 29.3827 34.2629 29.212 34.0068 29.212V29.2215ZM31.142 30.0278L31.1135 29.8855H31.1704L31.142 30.0278ZM32.0242 29.2215L32.0431 29.1551L32.0621 29.2215H32.0337H32.0242ZM32.9443 30.0278L32.9064 29.8855H32.9633L32.9443 30.0278Z" fill="white"/>
<path d="M20.2897 19.9817C20.1474 20.2947 20.2897 20.6552 20.6027 20.7975C20.6881 20.8354 20.7735 20.8544 20.8493 20.8544C21.0865 20.8544 21.3142 20.7216 21.409 20.4844L21.5323 20.2188H23.6573L23.7711 20.4844C23.8754 20.7121 24.1031 20.8544 24.3308 20.8544C24.4161 20.8544 24.5015 20.8354 24.5774 20.7975C24.8905 20.6552 25.0327 20.2947 24.8905 19.9817L23.2399 16.2536C23.126 16.007 22.8794 15.8457 22.5948 15.8457C22.3102 15.8457 22.0636 15.9975 21.9403 16.2441L20.2802 19.9722L20.2897 19.9817ZM22.0825 18.9856L22.6043 17.8188L23.1165 18.9856H22.0825Z" fill="white"/>
<path d="M17.4525 17.0691H17.9648V20.228C17.9648 20.5695 18.2399 20.8446 18.5814 20.8446C18.9229 20.8446 19.198 20.5695 19.198 20.228V17.0691H19.7197C20.0612 17.0691 20.3363 16.794 20.3363 16.4525C20.3363 16.111 20.0612 15.8359 19.7197 15.8359H17.4525C17.111 15.8359 16.8359 16.111 16.8359 16.4525C16.8359 16.794 17.111 17.0691 17.4525 17.0691Z" fill="white"/>
<path d="M26.3314 20.8453C26.5306 20.8453 26.7203 20.7504 26.8341 20.5797L27.7448 19.28L28.6555 20.5797C28.7788 20.7504 28.9685 20.8453 29.1583 20.8453C29.2816 20.8453 29.4049 20.8073 29.5092 20.7314C29.7843 20.5322 29.8602 20.1528 29.661 19.8682L28.4942 18.1986L29.4808 16.7947C29.68 16.5196 29.6041 16.1306 29.329 15.9314C29.0539 15.7322 28.665 15.8081 28.4658 16.0832L27.7448 17.1172L27.0239 16.0832C26.8341 15.8081 26.4452 15.7322 26.1606 15.9314C25.876 16.1306 25.8096 16.5101 26.0088 16.7947L26.9859 18.1986L25.8191 19.8682C25.6199 20.1433 25.6958 20.5322 25.9709 20.7314C26.0753 20.8073 26.1986 20.8453 26.3219 20.8453H26.3314Z" fill="white"/>
<path d="M38 25.8348C38 24.0134 36.5107 22.5241 34.6893 22.5241C33.9209 22.5241 33.1905 22.7992 32.6119 23.264V13.6166C32.6119 13.2751 32.3368 13 31.9953 13H14.6166C14.2751 13 14 13.2751 14 13.6166V36.3834C14 36.7249 14.2751 37 14.6166 37H31.9953C32.3368 37 32.6119 36.7249 32.6119 36.3834V34.5526C35.2206 34.2206 37.1557 31.9059 36.9565 29.2593C36.9376 28.9557 36.8711 28.6522 36.7953 28.3581C37.5542 27.7225 37.9905 26.8119 37.9905 25.8253L38 25.8348ZM15.2332 35.7668V14.2332H31.3787V24.7249C30.8095 24.8008 30.2688 24.9526 29.7755 25.1992V24.0609C29.7755 23.7194 29.5004 23.4443 29.1589 23.4443H17.453C17.1115 23.4443 16.8364 23.7194 16.8364 24.0609V32.5605C16.8364 32.902 17.1115 33.1771 17.453 33.1771H28.5328C28.6087 33.253 28.6751 33.3478 28.7605 33.4142C29.5099 34.0593 30.4206 34.4387 31.3787 34.5621V35.7668H15.2332ZM28.5613 26.0719C28.4949 26.1383 28.419 26.1953 28.3621 26.2711H20.9059V24.668H28.5518V25.9866C28.5518 25.9866 28.5613 26.0435 28.5708 26.0719H28.5613ZM19.6632 26.2711H18.0601V24.668H19.6632V26.2711ZM18.0601 27.5043H19.6632V29.1075H18.0601V27.5043ZM18.0601 30.3407H19.6632V31.9439H18.0601V30.3407ZM20.8964 30.3407H27.0909C27.1668 30.9004 27.3281 31.4506 27.5842 31.9439H20.8964V30.3407ZM27.053 29.1075H20.8964V27.5043H27.5273C27.2901 28.0071 27.1194 28.5383 27.053 29.1075ZM32.2798 33.3668C31.2838 33.4427 30.3162 33.1296 29.5573 32.4751C28.7984 31.8206 28.3431 30.9194 28.2672 29.9233C28.1059 27.8648 29.6522 26.0625 31.7107 25.9107C31.8055 25.9107 31.9004 25.9012 31.9953 25.9012C32.887 25.9012 33.7407 26.2142 34.4237 26.8024C35.1826 27.4569 35.6379 28.3581 35.7138 29.3542C35.8751 31.4126 34.3289 33.215 32.2704 33.3668H32.2798ZM35.23 25.8632C34.5565 25.2846 33.7597 24.9241 32.9059 24.7628C33.2759 24.1557 33.9494 23.7478 34.6798 23.7478C35.8277 23.7478 36.7573 24.6775 36.7573 25.8253C36.7573 26.3186 36.5866 26.7739 36.2735 27.1439C35.9984 26.6696 35.6569 26.2237 35.2206 25.8538L35.23 25.8632Z" fill="white"/>
</g>
<defs>
<clipPath id="clip0_6082_19103">
<rect width="24" height="24" fill="white" transform="translate(14 13)"/>
</clipPath>
</defs>
</svg>
