<?xml version="1.0" encoding="utf-8"?>
<svg version="1.1" xmlns:xlink="http://www.w3.org/1999/xlink" width="18px" height="18px" xmlns="http://www.w3.org/2000/svg">
  <g transform="matrix(1 0 0 1 -395 -1837 )">
    <path d="M 17.999972842596403 17.257127805997037  C 18.00168025407642 17.060641668303123  17.926146568755357 16.87134524104419  17.789640181077942 16.73000974887263  C 17.789640181077942 16.73000974887263  13.316565674741176 12.256935242535862  13.316565674741176 12.256935242535862  C 14.535530648519591 10.766106702709251  15.134854971126995 8.863791863594237  14.990572331163731 6.94347202322895  C 14.846289691200468 5.0231521828636625  13.96943841189221 3.2317489840391493  12.5413904638286 1.939802954773156  C 11.113342515764991 0.6478569255071627  9.243354992289124 -0.04578679307167932  7.318224182143276 0.0023475161309245126  C 5.393093371997429 0.05048182533352835  3.5601083469232844 0.8367113861226143  2.1984098665229492 2.1984098665229492  C 0.8367113861226143 3.5601083469232844  0.05048182533352835 5.393093371997429  0.0023475161309245126 7.318224182143276  C -0.04578679307167932 9.243354992289124  0.6478569255071627 11.113342515764991  1.939802954773156 12.5413904638286  C 3.2317489840391493 13.96943841189221  5.0231521828636625 14.846289691200468  6.94347202322895 14.990572331163731  C 8.863791863594237 15.134854971126995  10.766106702709251 14.535530648519591  12.256935242535862 13.316565674741176  C 12.256935242535862 13.316565674741176  16.73000974887263 17.789640181077942  16.73000974887263 17.789640181077942  C 16.87134524104419 17.926146568755357  17.060641668303123 18.00168025407642  17.257127805997037 17.999972842596403  C 17.45361394369095 17.998265431116387  17.64156908331296 17.919452927603842  17.7805110054584 17.7805110054584  C 17.919452927603842 17.64156908331296  17.998265431116387 17.45361394369095  17.999972842596403 17.257127805997037  Z M 11.755014967937985 11.755014967937985  C 10.631107249430666 12.878922686445303  9.10727353087777 13.511118582977595  7.517828954572572 13.51290369738521  C 6.332115362824103 13.51290369738521  5.173029069300691 13.161298267024138  4.187144209227625 12.502551088674402  C 3.2012593491545593 11.843803910324665  2.4328557117618006 10.907500831199187  1.979102755118595 9.812044244968991  C 1.5253497984753897 8.716587658738796  1.4066273449762892 7.511178696033296  1.6379485924643287 6.348248200563937  C 1.8692698399523682 5.185317705094578  2.4402453842141316 4.1170976719990735  3.2786715281066026 3.2786715281066026  C 4.1170976719990735 2.4402453842141316  5.185317705094578 1.8692698399523682  6.348248200563937 1.6379485924643287  C 7.511178696033296 1.4066273449762892  8.716587658738796 1.5253497984753897  9.812044244968991 1.979102755118595  C 10.907500831199187 2.4328557117618006  11.843803910324665 3.2012593491545593  12.502551088674402 4.187144209227625  C 13.161298267024138 5.173029069300691  13.51290369738521 6.332115362824103  13.51290369738521 7.517828954572572  C 13.511118582977595 9.10727353087777  12.878922686445303 10.631107249430666  11.755014967937985 11.755014967937985  Z " fill-rule="nonzero" fill="#000000" stroke="none" transform="matrix(1 0 0 1 395 1837 )" />
  </g>
</svg>