<svg width="28" height="22" viewBox="0 0 28 22" fill="none" xmlns="http://www.w3.org/2000/svg">
<path d="M22.3738 13.533C23.9695 13.6692 24.377 14.6498 24.2008 16.0492C24.2397 16.047 24.2797 16.0447 24.3187 16.0425C24.3576 15.9479 24.4091 15.8567 24.4343 15.7588C24.5854 15.1846 24.7731 14.6329 25.1188 14.1331C25.7232 13.2572 27.2307 13.3427 27.7012 14.3008C27.9999 14.9099 28.0446 15.5527 27.9656 16.1967C27.8958 16.7664 27.7321 17.3237 27.6165 17.8562C27.0338 17.783 26.537 17.6873 26.0368 17.6648C25.0982 17.6243 24.6346 18.0701 24.6254 18.9956C24.6174 19.769 24.7399 20.5289 24.9894 21.263C25.0581 21.4645 25.0032 21.5422 24.8223 21.6221C24.1138 21.934 23.3629 21.9756 22.6085 21.952C22.1655 21.9385 21.7157 21.8811 21.2841 21.7797C20.5298 21.6019 20.1097 21.0738 20.0456 20.3364C19.9918 19.715 20.049 19.0845 20.0593 18.4585C20.0605 18.3595 20.0776 18.2615 20.0925 18.105C20.0158 18.1726 19.9815 18.1985 19.9517 18.23C18.2645 20.0505 16.1285 21.0727 13.7224 21.612C12.4793 21.8901 11.2178 21.9948 9.94724 21.997C7.38202 22.0015 4.81565 22.0004 2.25043 21.997C1.17673 21.997 0.375454 21.4521 0.0984422 20.5233C0.0297616 20.2936 0.00343403 20.0437 0.00343403 19.8039C0 13.9405 0 8.07831 0 2.21496C0 0.908988 0.852784 0.00944459 2.17603 0.00719292C5.20828 0.00156373 8.24282 -0.0220788 11.2728 0.0646106C13.5816 0.131035 15.7679 0.751371 17.7436 1.97065C20.3741 3.59298 21.9286 5.92909 22.4368 8.93845C22.6841 10.4043 22.6703 11.8701 22.3899 13.3315C22.3796 13.3855 22.3807 13.4418 22.3738 13.533ZM6.91728 10.9976C6.91728 12.4319 6.91728 13.8662 6.91728 15.3017C6.91728 15.6158 7.02145 15.7565 7.29159 15.7531C8.6446 15.7396 9.9999 15.7576 11.3495 15.6822C12.3522 15.6259 13.284 15.2702 14.1013 14.6802C15.2162 13.8775 15.7404 12.7573 15.824 11.4277C15.9202 9.87402 15.5459 8.48474 14.2604 7.45235C13.3755 6.74195 12.3373 6.36817 11.2133 6.30625C9.95869 6.23645 8.6984 6.25671 7.44154 6.24207C7.01343 6.23757 6.91728 6.33552 6.91728 6.75095C6.91728 8.16726 6.91728 9.58243 6.91728 10.9987V10.9976Z" fill="url(#paint0_linear_150_3617)"/>
<defs>
<linearGradient id="paint0_linear_150_3617" x1="0" y1="0" x2="23.0201" y2="26.7308" gradientUnits="userSpaceOnUse">
<stop stop-color="#388CFF"/>
<stop offset="1" stop-color="#62D7C3"/>
</linearGradient>
</defs>
</svg>
